# xmcd CD database file
#
# Track frame offsets:
#	150
#	20511
#	42185
#	60759
#	80215
#	102547
#	123657
#	146703
#	169615
#	190039
#	210847
#	230558
#
# Disc length: 4060 seconds
#
# Revision: 0
# Processed by: cddbd v1.4PL0 Copyright (c) Steve Scherf et al.
# Submitted via: CDex 1.50beta10
#
DISCID=9f0fda0c
DTITLE=Frankie Ruiz - Leyendas de la salsa - 2
DYEAR=1900
DGENRE=Salsa
TTITLE0=Quiero llenarte
TTITLE1=Desnúdate mujer
TTITLE2=Mujeres
TTITLE3=Vuelvo a nacer
TTITLE4=La cura
TTITLE5=Para darte fuego
TTITLE6=Mirándote
TTITLE7=Ironía
TTITLE8=I cant get no satisfaction
TTITLE9=Puerto Rico
TTITLE10=Señora
TTITLE11=Megamix
EXTD=
EXTT0=
EXTT1=
EXTT2=
EXTT3=
EXTT4=
EXTT5=
EXTT6=
EXTT7=
EXTT8=
EXTT9=
EXTT10=
EXTT11=
PLAYORDER=
